<mxfile host="app.diagrams.net" agent="Mozilla/5.0 (Windows NT 10.0; Win64; x64) AppleWebKit/537.36 (KHTML, like Gecko) Chrome/128.0.0.0 Safari/537.36" version="24.7.12">
  <diagram name="Page-1" id="CE_rK_QQu4wzql79LrfP">
    <mxGraphModel dx="1434" dy="1872" grid="1" gridSize="10" guides="1" tooltips="1" connect="1" arrows="1" fold="1" page="1" pageScale="1" pageWidth="850" pageHeight="1100" math="0" shadow="0">
      <root>
        <mxCell id="0" />
        <mxCell id="1" parent="0" />
        <mxCell id="_2mIFLcZgnzXSxb4yv_Y-1" value="Airlne" style="swimlane;fontStyle=1;align=center;verticalAlign=top;childLayout=stackLayout;horizontal=1;startSize=26;horizontalStack=0;resizeParent=1;resizeParentMax=0;resizeLast=0;collapsible=1;marginBottom=0;whiteSpace=wrap;html=1;" vertex="1" parent="1">
          <mxGeometry x="490" y="180" width="160" height="86" as="geometry" />
        </mxCell>
        <mxCell id="_2mIFLcZgnzXSxb4yv_Y-2" value="+ name : string" style="text;strokeColor=none;fillColor=none;align=left;verticalAlign=top;spacingLeft=4;spacingRight=4;overflow=hidden;rotatable=0;points=[[0,0.5],[1,0.5]];portConstraint=eastwest;whiteSpace=wrap;html=1;" vertex="1" parent="_2mIFLcZgnzXSxb4yv_Y-1">
          <mxGeometry y="26" width="160" height="26" as="geometry" />
        </mxCell>
        <mxCell id="_2mIFLcZgnzXSxb4yv_Y-3" value="" style="line;strokeWidth=1;fillColor=none;align=left;verticalAlign=middle;spacingTop=-1;spacingLeft=3;spacingRight=3;rotatable=0;labelPosition=right;points=[];portConstraint=eastwest;strokeColor=inherit;" vertex="1" parent="_2mIFLcZgnzXSxb4yv_Y-1">
          <mxGeometry y="52" width="160" height="8" as="geometry" />
        </mxCell>
        <mxCell id="_2mIFLcZgnzXSxb4yv_Y-4" value="&lt;div&gt;&lt;br&gt;&lt;/div&gt;&lt;div&gt;&lt;br&gt;&lt;/div&gt;" style="text;strokeColor=none;fillColor=none;align=left;verticalAlign=top;spacingLeft=4;spacingRight=4;overflow=hidden;rotatable=0;points=[[0,0.5],[1,0.5]];portConstraint=eastwest;whiteSpace=wrap;html=1;" vertex="1" parent="_2mIFLcZgnzXSxb4yv_Y-1">
          <mxGeometry y="60" width="160" height="26" as="geometry" />
        </mxCell>
        <mxCell id="_2mIFLcZgnzXSxb4yv_Y-5" value="Plane" style="swimlane;fontStyle=1;align=center;verticalAlign=top;childLayout=stackLayout;horizontal=1;startSize=26;horizontalStack=0;resizeParent=1;resizeParentMax=0;resizeLast=0;collapsible=1;marginBottom=0;whiteSpace=wrap;html=1;" vertex="1" parent="1">
          <mxGeometry x="640" y="440" width="160" height="86" as="geometry" />
        </mxCell>
        <mxCell id="_2mIFLcZgnzXSxb4yv_Y-6" value="+ name : string" style="text;strokeColor=none;fillColor=none;align=left;verticalAlign=top;spacingLeft=4;spacingRight=4;overflow=hidden;rotatable=0;points=[[0,0.5],[1,0.5]];portConstraint=eastwest;whiteSpace=wrap;html=1;" vertex="1" parent="_2mIFLcZgnzXSxb4yv_Y-5">
          <mxGeometry y="26" width="160" height="26" as="geometry" />
        </mxCell>
        <mxCell id="_2mIFLcZgnzXSxb4yv_Y-7" value="" style="line;strokeWidth=1;fillColor=none;align=left;verticalAlign=middle;spacingTop=-1;spacingLeft=3;spacingRight=3;rotatable=0;labelPosition=right;points=[];portConstraint=eastwest;strokeColor=inherit;" vertex="1" parent="_2mIFLcZgnzXSxb4yv_Y-5">
          <mxGeometry y="52" width="160" height="8" as="geometry" />
        </mxCell>
        <mxCell id="_2mIFLcZgnzXSxb4yv_Y-8" value="&lt;div&gt;&lt;br&gt;&lt;/div&gt;&lt;div&gt;&lt;br&gt;&lt;/div&gt;" style="text;strokeColor=none;fillColor=none;align=left;verticalAlign=top;spacingLeft=4;spacingRight=4;overflow=hidden;rotatable=0;points=[[0,0.5],[1,0.5]];portConstraint=eastwest;whiteSpace=wrap;html=1;" vertex="1" parent="_2mIFLcZgnzXSxb4yv_Y-5">
          <mxGeometry y="60" width="160" height="26" as="geometry" />
        </mxCell>
        <mxCell id="_2mIFLcZgnzXSxb4yv_Y-9" value="Passenger" style="swimlane;fontStyle=1;align=center;verticalAlign=top;childLayout=stackLayout;horizontal=1;startSize=26;horizontalStack=0;resizeParent=1;resizeParentMax=0;resizeLast=0;collapsible=1;marginBottom=0;whiteSpace=wrap;html=1;" vertex="1" parent="1">
          <mxGeometry x="160" y="-130" width="160" height="86" as="geometry" />
        </mxCell>
        <mxCell id="_2mIFLcZgnzXSxb4yv_Y-10" value="+ name" style="text;strokeColor=none;fillColor=none;align=left;verticalAlign=top;spacingLeft=4;spacingRight=4;overflow=hidden;rotatable=0;points=[[0,0.5],[1,0.5]];portConstraint=eastwest;whiteSpace=wrap;html=1;" vertex="1" parent="_2mIFLcZgnzXSxb4yv_Y-9">
          <mxGeometry y="26" width="160" height="26" as="geometry" />
        </mxCell>
        <mxCell id="_2mIFLcZgnzXSxb4yv_Y-11" value="" style="line;strokeWidth=1;fillColor=none;align=left;verticalAlign=middle;spacingTop=-1;spacingLeft=3;spacingRight=3;rotatable=0;labelPosition=right;points=[];portConstraint=eastwest;strokeColor=inherit;" vertex="1" parent="_2mIFLcZgnzXSxb4yv_Y-9">
          <mxGeometry y="52" width="160" height="8" as="geometry" />
        </mxCell>
        <mxCell id="_2mIFLcZgnzXSxb4yv_Y-12" value="&lt;div&gt;&lt;br&gt;&lt;/div&gt;&lt;div&gt;&lt;br&gt;&lt;/div&gt;" style="text;strokeColor=none;fillColor=none;align=left;verticalAlign=top;spacingLeft=4;spacingRight=4;overflow=hidden;rotatable=0;points=[[0,0.5],[1,0.5]];portConstraint=eastwest;whiteSpace=wrap;html=1;" vertex="1" parent="_2mIFLcZgnzXSxb4yv_Y-9">
          <mxGeometry y="60" width="160" height="26" as="geometry" />
        </mxCell>
        <mxCell id="_2mIFLcZgnzXSxb4yv_Y-13" value="Seat" style="swimlane;fontStyle=1;align=center;verticalAlign=top;childLayout=stackLayout;horizontal=1;startSize=26;horizontalStack=0;resizeParent=1;resizeParentMax=0;resizeLast=0;collapsible=1;marginBottom=0;whiteSpace=wrap;html=1;" vertex="1" parent="1">
          <mxGeometry x="660" y="-80" width="160" height="86" as="geometry" />
        </mxCell>
        <mxCell id="_2mIFLcZgnzXSxb4yv_Y-14" value="+ Location" style="text;strokeColor=none;fillColor=none;align=left;verticalAlign=top;spacingLeft=4;spacingRight=4;overflow=hidden;rotatable=0;points=[[0,0.5],[1,0.5]];portConstraint=eastwest;whiteSpace=wrap;html=1;" vertex="1" parent="_2mIFLcZgnzXSxb4yv_Y-13">
          <mxGeometry y="26" width="160" height="26" as="geometry" />
        </mxCell>
        <mxCell id="_2mIFLcZgnzXSxb4yv_Y-15" value="" style="line;strokeWidth=1;fillColor=none;align=left;verticalAlign=middle;spacingTop=-1;spacingLeft=3;spacingRight=3;rotatable=0;labelPosition=right;points=[];portConstraint=eastwest;strokeColor=inherit;" vertex="1" parent="_2mIFLcZgnzXSxb4yv_Y-13">
          <mxGeometry y="52" width="160" height="8" as="geometry" />
        </mxCell>
        <mxCell id="_2mIFLcZgnzXSxb4yv_Y-16" value="&lt;div&gt;&lt;br&gt;&lt;/div&gt;&lt;div&gt;&lt;br&gt;&lt;/div&gt;" style="text;strokeColor=none;fillColor=none;align=left;verticalAlign=top;spacingLeft=4;spacingRight=4;overflow=hidden;rotatable=0;points=[[0,0.5],[1,0.5]];portConstraint=eastwest;whiteSpace=wrap;html=1;" vertex="1" parent="_2mIFLcZgnzXSxb4yv_Y-13">
          <mxGeometry y="60" width="160" height="26" as="geometry" />
        </mxCell>
        <mxCell id="_2mIFLcZgnzXSxb4yv_Y-17" value="City" style="swimlane;fontStyle=1;align=center;verticalAlign=top;childLayout=stackLayout;horizontal=1;startSize=26;horizontalStack=0;resizeParent=1;resizeParentMax=0;resizeLast=0;collapsible=1;marginBottom=0;whiteSpace=wrap;html=1;" vertex="1" parent="1">
          <mxGeometry x="380" y="-10" width="160" height="86" as="geometry" />
        </mxCell>
        <mxCell id="_2mIFLcZgnzXSxb4yv_Y-18" value="+ name" style="text;strokeColor=none;fillColor=none;align=left;verticalAlign=top;spacingLeft=4;spacingRight=4;overflow=hidden;rotatable=0;points=[[0,0.5],[1,0.5]];portConstraint=eastwest;whiteSpace=wrap;html=1;" vertex="1" parent="_2mIFLcZgnzXSxb4yv_Y-17">
          <mxGeometry y="26" width="160" height="26" as="geometry" />
        </mxCell>
        <mxCell id="_2mIFLcZgnzXSxb4yv_Y-19" value="" style="line;strokeWidth=1;fillColor=none;align=left;verticalAlign=middle;spacingTop=-1;spacingLeft=3;spacingRight=3;rotatable=0;labelPosition=right;points=[];portConstraint=eastwest;strokeColor=inherit;" vertex="1" parent="_2mIFLcZgnzXSxb4yv_Y-17">
          <mxGeometry y="52" width="160" height="8" as="geometry" />
        </mxCell>
        <mxCell id="_2mIFLcZgnzXSxb4yv_Y-20" value="&lt;div&gt;&lt;br&gt;&lt;/div&gt;&lt;div&gt;&lt;br&gt;&lt;/div&gt;" style="text;strokeColor=none;fillColor=none;align=left;verticalAlign=top;spacingLeft=4;spacingRight=4;overflow=hidden;rotatable=0;points=[[0,0.5],[1,0.5]];portConstraint=eastwest;whiteSpace=wrap;html=1;" vertex="1" parent="_2mIFLcZgnzXSxb4yv_Y-17">
          <mxGeometry y="60" width="160" height="26" as="geometry" />
        </mxCell>
        <mxCell id="_2mIFLcZgnzXSxb4yv_Y-21" value="Pilot" style="swimlane;fontStyle=1;align=center;verticalAlign=top;childLayout=stackLayout;horizontal=1;startSize=26;horizontalStack=0;resizeParent=1;resizeParentMax=0;resizeLast=0;collapsible=1;marginBottom=0;whiteSpace=wrap;html=1;" vertex="1" parent="1">
          <mxGeometry x="600" y="60" width="160" height="86" as="geometry" />
        </mxCell>
        <mxCell id="_2mIFLcZgnzXSxb4yv_Y-22" value="+ name : string" style="text;strokeColor=none;fillColor=none;align=left;verticalAlign=top;spacingLeft=4;spacingRight=4;overflow=hidden;rotatable=0;points=[[0,0.5],[1,0.5]];portConstraint=eastwest;whiteSpace=wrap;html=1;" vertex="1" parent="_2mIFLcZgnzXSxb4yv_Y-21">
          <mxGeometry y="26" width="160" height="26" as="geometry" />
        </mxCell>
        <mxCell id="_2mIFLcZgnzXSxb4yv_Y-23" value="" style="line;strokeWidth=1;fillColor=none;align=left;verticalAlign=middle;spacingTop=-1;spacingLeft=3;spacingRight=3;rotatable=0;labelPosition=right;points=[];portConstraint=eastwest;strokeColor=inherit;" vertex="1" parent="_2mIFLcZgnzXSxb4yv_Y-21">
          <mxGeometry y="52" width="160" height="8" as="geometry" />
        </mxCell>
        <mxCell id="_2mIFLcZgnzXSxb4yv_Y-24" value="&lt;div&gt;&lt;br&gt;&lt;/div&gt;&lt;div&gt;&lt;br&gt;&lt;/div&gt;" style="text;strokeColor=none;fillColor=none;align=left;verticalAlign=top;spacingLeft=4;spacingRight=4;overflow=hidden;rotatable=0;points=[[0,0.5],[1,0.5]];portConstraint=eastwest;whiteSpace=wrap;html=1;" vertex="1" parent="_2mIFLcZgnzXSxb4yv_Y-21">
          <mxGeometry y="60" width="160" height="26" as="geometry" />
        </mxCell>
        <mxCell id="_2mIFLcZgnzXSxb4yv_Y-25" value="Airport" style="swimlane;fontStyle=1;align=center;verticalAlign=top;childLayout=stackLayout;horizontal=1;startSize=26;horizontalStack=0;resizeParent=1;resizeParentMax=0;resizeLast=0;collapsible=1;marginBottom=0;whiteSpace=wrap;html=1;" vertex="1" parent="1">
          <mxGeometry x="265" y="250" width="160" height="82" as="geometry" />
        </mxCell>
        <mxCell id="_2mIFLcZgnzXSxb4yv_Y-26" value="+ name : string" style="text;strokeColor=none;fillColor=none;align=left;verticalAlign=top;spacingLeft=4;spacingRight=4;overflow=hidden;rotatable=0;points=[[0,0.5],[1,0.5]];portConstraint=eastwest;whiteSpace=wrap;html=1;" vertex="1" parent="_2mIFLcZgnzXSxb4yv_Y-25">
          <mxGeometry y="26" width="160" height="22" as="geometry" />
        </mxCell>
        <mxCell id="_2mIFLcZgnzXSxb4yv_Y-27" value="" style="line;strokeWidth=1;fillColor=none;align=left;verticalAlign=middle;spacingTop=-1;spacingLeft=3;spacingRight=3;rotatable=0;labelPosition=right;points=[];portConstraint=eastwest;strokeColor=inherit;" vertex="1" parent="_2mIFLcZgnzXSxb4yv_Y-25">
          <mxGeometry y="48" width="160" height="8" as="geometry" />
        </mxCell>
        <mxCell id="_2mIFLcZgnzXSxb4yv_Y-28" value="&lt;div&gt;&lt;br&gt;&lt;/div&gt;&lt;div&gt;&lt;br&gt;&lt;/div&gt;" style="text;strokeColor=none;fillColor=none;align=left;verticalAlign=top;spacingLeft=4;spacingRight=4;overflow=hidden;rotatable=0;points=[[0,0.5],[1,0.5]];portConstraint=eastwest;whiteSpace=wrap;html=1;" vertex="1" parent="_2mIFLcZgnzXSxb4yv_Y-25">
          <mxGeometry y="56" width="160" height="26" as="geometry" />
        </mxCell>
        <mxCell id="_2mIFLcZgnzXSxb4yv_Y-29" value="&lt;font style=&quot;font-size: 15px;&quot;&gt;Flight&lt;/font&gt;" style="swimlane;fontStyle=1;align=center;verticalAlign=top;childLayout=stackLayout;horizontal=1;startSize=26;horizontalStack=0;resizeParent=1;resizeParentMax=0;resizeLast=0;collapsible=1;marginBottom=0;whiteSpace=wrap;html=1;" vertex="1" parent="1">
          <mxGeometry x="450" y="580" width="160" height="86" as="geometry" />
        </mxCell>
        <mxCell id="_2mIFLcZgnzXSxb4yv_Y-30" value="+ flightnum : int" style="text;strokeColor=none;fillColor=none;align=left;verticalAlign=top;spacingLeft=4;spacingRight=4;overflow=hidden;rotatable=0;points=[[0,0.5],[1,0.5]];portConstraint=eastwest;whiteSpace=wrap;html=1;" vertex="1" parent="_2mIFLcZgnzXSxb4yv_Y-29">
          <mxGeometry y="26" width="160" height="26" as="geometry" />
        </mxCell>
        <mxCell id="_2mIFLcZgnzXSxb4yv_Y-31" value="" style="line;strokeWidth=1;fillColor=none;align=left;verticalAlign=middle;spacingTop=-1;spacingLeft=3;spacingRight=3;rotatable=0;labelPosition=right;points=[];portConstraint=eastwest;strokeColor=inherit;" vertex="1" parent="_2mIFLcZgnzXSxb4yv_Y-29">
          <mxGeometry y="52" width="160" height="8" as="geometry" />
        </mxCell>
        <mxCell id="_2mIFLcZgnzXSxb4yv_Y-32" value="&lt;div&gt;&lt;br&gt;&lt;/div&gt;&lt;div&gt;&lt;br&gt;&lt;/div&gt;" style="text;strokeColor=none;fillColor=none;align=left;verticalAlign=top;spacingLeft=4;spacingRight=4;overflow=hidden;rotatable=0;points=[[0,0.5],[1,0.5]];portConstraint=eastwest;whiteSpace=wrap;html=1;" vertex="1" parent="_2mIFLcZgnzXSxb4yv_Y-29">
          <mxGeometry y="60" width="160" height="26" as="geometry" />
        </mxCell>
        <mxCell id="_2mIFLcZgnzXSxb4yv_Y-78" value="" style="endArrow=none;html=1;edgeStyle=orthogonalEdgeStyle;rounded=0;exitX=0.4;exitY=1.115;exitDx=0;exitDy=0;exitPerimeter=0;entryX=0.456;entryY=0;entryDx=0;entryDy=0;entryPerimeter=0;" edge="1" parent="1" source="_2mIFLcZgnzXSxb4yv_Y-28" target="_2mIFLcZgnzXSxb4yv_Y-29">
          <mxGeometry relative="1" as="geometry">
            <mxPoint x="310" y="510" as="sourcePoint" />
            <mxPoint x="470" y="510" as="targetPoint" />
            <Array as="points">
              <mxPoint x="330" y="335" />
              <mxPoint x="330" y="520" />
              <mxPoint x="523" y="520" />
            </Array>
          </mxGeometry>
        </mxCell>
        <mxCell id="_2mIFLcZgnzXSxb4yv_Y-79" value="" style="edgeLabel;resizable=0;html=1;align=left;verticalAlign=bottom;" connectable="0" vertex="1" parent="_2mIFLcZgnzXSxb4yv_Y-78">
          <mxGeometry x="-1" relative="1" as="geometry" />
        </mxCell>
        <mxCell id="_2mIFLcZgnzXSxb4yv_Y-80" value="" style="edgeLabel;resizable=0;html=1;align=right;verticalAlign=bottom;" connectable="0" vertex="1" parent="_2mIFLcZgnzXSxb4yv_Y-78">
          <mxGeometry x="1" relative="1" as="geometry" />
        </mxCell>
        <mxCell id="_2mIFLcZgnzXSxb4yv_Y-81" value="Arrive" style="edgeLabel;html=1;align=center;verticalAlign=middle;resizable=0;points=[];" vertex="1" connectable="0" parent="_2mIFLcZgnzXSxb4yv_Y-78">
          <mxGeometry x="-0.3531" y="-1" relative="1" as="geometry">
            <mxPoint as="offset" />
          </mxGeometry>
        </mxCell>
        <mxCell id="_2mIFLcZgnzXSxb4yv_Y-82" value="1" style="edgeLabel;html=1;align=center;verticalAlign=middle;resizable=0;points=[];" vertex="1" connectable="0" parent="_2mIFLcZgnzXSxb4yv_Y-78">
          <mxGeometry x="-0.6264" y="1" relative="1" as="geometry">
            <mxPoint as="offset" />
          </mxGeometry>
        </mxCell>
        <mxCell id="_2mIFLcZgnzXSxb4yv_Y-83" value="0..*" style="edgeLabel;html=1;align=center;verticalAlign=middle;resizable=0;points=[];" vertex="1" connectable="0" parent="_2mIFLcZgnzXSxb4yv_Y-78">
          <mxGeometry x="0.303" y="1" relative="1" as="geometry">
            <mxPoint as="offset" />
          </mxGeometry>
        </mxCell>
        <mxCell id="_2mIFLcZgnzXSxb4yv_Y-84" value="" style="endArrow=none;html=1;edgeStyle=orthogonalEdgeStyle;rounded=0;exitX=0.044;exitY=1.115;exitDx=0;exitDy=0;exitPerimeter=0;entryX=0.25;entryY=0;entryDx=0;entryDy=0;" edge="1" parent="1" target="_2mIFLcZgnzXSxb4yv_Y-29">
          <mxGeometry relative="1" as="geometry">
            <mxPoint x="259.99999999999994" y="319.9999999999998" as="sourcePoint" />
            <mxPoint x="480" y="570" as="targetPoint" />
            <Array as="points">
              <mxPoint x="260" y="321" />
              <mxPoint x="454" y="321" />
              <mxPoint x="454" y="580" />
            </Array>
          </mxGeometry>
        </mxCell>
        <mxCell id="_2mIFLcZgnzXSxb4yv_Y-85" value="" style="edgeLabel;resizable=0;html=1;align=left;verticalAlign=bottom;" connectable="0" vertex="1" parent="_2mIFLcZgnzXSxb4yv_Y-84">
          <mxGeometry x="-1" relative="1" as="geometry" />
        </mxCell>
        <mxCell id="_2mIFLcZgnzXSxb4yv_Y-86" value="" style="edgeLabel;resizable=0;html=1;align=right;verticalAlign=bottom;" connectable="0" vertex="1" parent="_2mIFLcZgnzXSxb4yv_Y-84">
          <mxGeometry x="1" relative="1" as="geometry" />
        </mxCell>
        <mxCell id="_2mIFLcZgnzXSxb4yv_Y-87" value="Depart" style="edgeLabel;html=1;align=center;verticalAlign=middle;resizable=0;points=[];" vertex="1" connectable="0" parent="_2mIFLcZgnzXSxb4yv_Y-84">
          <mxGeometry x="0.4857" y="1" relative="1" as="geometry">
            <mxPoint as="offset" />
          </mxGeometry>
        </mxCell>
        <mxCell id="_2mIFLcZgnzXSxb4yv_Y-88" value="1" style="edgeLabel;html=1;align=center;verticalAlign=middle;resizable=0;points=[];" vertex="1" connectable="0" parent="_2mIFLcZgnzXSxb4yv_Y-84">
          <mxGeometry x="-0.0939" y="1" relative="1" as="geometry">
            <mxPoint as="offset" />
          </mxGeometry>
        </mxCell>
        <mxCell id="_2mIFLcZgnzXSxb4yv_Y-89" value="0..*" style="edgeLabel;html=1;align=center;verticalAlign=middle;resizable=0;points=[];" vertex="1" connectable="0" parent="_2mIFLcZgnzXSxb4yv_Y-84">
          <mxGeometry x="0.7592" y="3" relative="1" as="geometry">
            <mxPoint as="offset" />
          </mxGeometry>
        </mxCell>
        <mxCell id="_2mIFLcZgnzXSxb4yv_Y-91" value="" style="endArrow=none;html=1;edgeStyle=orthogonalEdgeStyle;rounded=0;exitX=0.413;exitY=1.038;exitDx=0;exitDy=0;exitPerimeter=0;entryX=0;entryY=0.5;entryDx=0;entryDy=0;" edge="1" parent="1" source="_2mIFLcZgnzXSxb4yv_Y-12" target="_2mIFLcZgnzXSxb4yv_Y-30">
          <mxGeometry relative="1" as="geometry">
            <mxPoint x="310" y="400" as="sourcePoint" />
            <mxPoint x="470" y="400" as="targetPoint" />
          </mxGeometry>
        </mxCell>
        <mxCell id="_2mIFLcZgnzXSxb4yv_Y-92" value="" style="edgeLabel;resizable=0;html=1;align=left;verticalAlign=bottom;" connectable="0" vertex="1" parent="_2mIFLcZgnzXSxb4yv_Y-91">
          <mxGeometry x="-1" relative="1" as="geometry" />
        </mxCell>
        <mxCell id="_2mIFLcZgnzXSxb4yv_Y-93" value="" style="edgeLabel;resizable=0;html=1;align=right;verticalAlign=bottom;" connectable="0" vertex="1" parent="_2mIFLcZgnzXSxb4yv_Y-91">
          <mxGeometry x="1" relative="1" as="geometry" />
        </mxCell>
        <mxCell id="_2mIFLcZgnzXSxb4yv_Y-94" value="Books" style="edgeLabel;html=1;align=center;verticalAlign=middle;resizable=0;points=[];" vertex="1" connectable="0" parent="_2mIFLcZgnzXSxb4yv_Y-91">
          <mxGeometry x="-0.3114" y="-1" relative="1" as="geometry">
            <mxPoint as="offset" />
          </mxGeometry>
        </mxCell>
        <mxCell id="_2mIFLcZgnzXSxb4yv_Y-95" value="0..*" style="edgeLabel;html=1;align=center;verticalAlign=middle;resizable=0;points=[];" vertex="1" connectable="0" parent="_2mIFLcZgnzXSxb4yv_Y-91">
          <mxGeometry x="-0.7471" y="1" relative="1" as="geometry">
            <mxPoint as="offset" />
          </mxGeometry>
        </mxCell>
        <mxCell id="_2mIFLcZgnzXSxb4yv_Y-96" value="0..*" style="edgeLabel;html=1;align=center;verticalAlign=middle;resizable=0;points=[];" vertex="1" connectable="0" parent="_2mIFLcZgnzXSxb4yv_Y-91">
          <mxGeometry x="0.3704" y="-3" relative="1" as="geometry">
            <mxPoint as="offset" />
          </mxGeometry>
        </mxCell>
        <mxCell id="_2mIFLcZgnzXSxb4yv_Y-104" value="" style="endArrow=none;html=1;edgeStyle=orthogonalEdgeStyle;rounded=0;entryX=0.625;entryY=-0.035;entryDx=0;entryDy=0;entryPerimeter=0;exitX=0.975;exitY=1.077;exitDx=0;exitDy=0;exitPerimeter=0;" edge="1" parent="1" source="_2mIFLcZgnzXSxb4yv_Y-2" target="_2mIFLcZgnzXSxb4yv_Y-29">
          <mxGeometry relative="1" as="geometry">
            <mxPoint x="320" y="400" as="sourcePoint" />
            <mxPoint x="480" y="400" as="targetPoint" />
          </mxGeometry>
        </mxCell>
        <mxCell id="_2mIFLcZgnzXSxb4yv_Y-105" value="" style="edgeLabel;resizable=0;html=1;align=left;verticalAlign=bottom;" connectable="0" vertex="1" parent="_2mIFLcZgnzXSxb4yv_Y-104">
          <mxGeometry x="-1" relative="1" as="geometry" />
        </mxCell>
        <mxCell id="_2mIFLcZgnzXSxb4yv_Y-106" value="" style="edgeLabel;resizable=0;html=1;align=right;verticalAlign=bottom;" connectable="0" vertex="1" parent="_2mIFLcZgnzXSxb4yv_Y-104">
          <mxGeometry x="1" relative="1" as="geometry" />
        </mxCell>
        <mxCell id="_2mIFLcZgnzXSxb4yv_Y-107" value="1" style="edgeLabel;html=1;align=center;verticalAlign=middle;resizable=0;points=[];" vertex="1" connectable="0" parent="_2mIFLcZgnzXSxb4yv_Y-104">
          <mxGeometry x="-0.3446" y="-3" relative="1" as="geometry">
            <mxPoint as="offset" />
          </mxGeometry>
        </mxCell>
        <mxCell id="_2mIFLcZgnzXSxb4yv_Y-108" value="Operates" style="edgeLabel;html=1;align=center;verticalAlign=middle;resizable=0;points=[];" vertex="1" connectable="0" parent="_2mIFLcZgnzXSxb4yv_Y-104">
          <mxGeometry x="0.1526" y="-1" relative="1" as="geometry">
            <mxPoint as="offset" />
          </mxGeometry>
        </mxCell>
        <mxCell id="_2mIFLcZgnzXSxb4yv_Y-109" value="0..*" style="edgeLabel;html=1;align=center;verticalAlign=middle;resizable=0;points=[];" vertex="1" connectable="0" parent="_2mIFLcZgnzXSxb4yv_Y-104">
          <mxGeometry x="0.582" y="-1" relative="1" as="geometry">
            <mxPoint as="offset" />
          </mxGeometry>
        </mxCell>
        <mxCell id="_2mIFLcZgnzXSxb4yv_Y-111" value="" style="endArrow=none;html=1;edgeStyle=orthogonalEdgeStyle;rounded=0;exitX=0.519;exitY=1.038;exitDx=0;exitDy=0;exitPerimeter=0;entryX=0.75;entryY=0;entryDx=0;entryDy=0;" edge="1" parent="1" source="_2mIFLcZgnzXSxb4yv_Y-24" target="_2mIFLcZgnzXSxb4yv_Y-29">
          <mxGeometry relative="1" as="geometry">
            <mxPoint x="693" y="170" as="sourcePoint" />
            <mxPoint x="570" y="570" as="targetPoint" />
          </mxGeometry>
        </mxCell>
        <mxCell id="_2mIFLcZgnzXSxb4yv_Y-112" value="" style="edgeLabel;resizable=0;html=1;align=left;verticalAlign=bottom;" connectable="0" vertex="1" parent="_2mIFLcZgnzXSxb4yv_Y-111">
          <mxGeometry x="-1" relative="1" as="geometry" />
        </mxCell>
        <mxCell id="_2mIFLcZgnzXSxb4yv_Y-113" value="" style="edgeLabel;resizable=0;html=1;align=right;verticalAlign=bottom;" connectable="0" vertex="1" parent="_2mIFLcZgnzXSxb4yv_Y-111">
          <mxGeometry x="1" relative="1" as="geometry" />
        </mxCell>
        <mxCell id="_2mIFLcZgnzXSxb4yv_Y-114" value="1..*" style="edgeLabel;html=1;align=center;verticalAlign=middle;resizable=0;points=[];" vertex="1" connectable="0" parent="_2mIFLcZgnzXSxb4yv_Y-111">
          <mxGeometry x="-0.4435" y="1" relative="1" as="geometry">
            <mxPoint as="offset" />
          </mxGeometry>
        </mxCell>
        <mxCell id="_2mIFLcZgnzXSxb4yv_Y-115" value="Flies" style="edgeLabel;html=1;align=center;verticalAlign=middle;resizable=0;points=[];" vertex="1" connectable="0" parent="_2mIFLcZgnzXSxb4yv_Y-111">
          <mxGeometry x="0.0047" y="1" relative="1" as="geometry">
            <mxPoint as="offset" />
          </mxGeometry>
        </mxCell>
        <mxCell id="_2mIFLcZgnzXSxb4yv_Y-116" value="0..*" style="edgeLabel;html=1;align=center;verticalAlign=middle;resizable=0;points=[];" vertex="1" connectable="0" parent="_2mIFLcZgnzXSxb4yv_Y-111">
          <mxGeometry x="0.4846" y="2" relative="1" as="geometry">
            <mxPoint as="offset" />
          </mxGeometry>
        </mxCell>
        <mxCell id="_2mIFLcZgnzXSxb4yv_Y-117" value="" style="endArrow=none;html=1;edgeStyle=orthogonalEdgeStyle;rounded=0;entryX=1.013;entryY=0.962;entryDx=0;entryDy=0;entryPerimeter=0;" edge="1" parent="1" target="_2mIFLcZgnzXSxb4yv_Y-30">
          <mxGeometry relative="1" as="geometry">
            <mxPoint x="740" y="530" as="sourcePoint" />
            <mxPoint x="700" y="300" as="targetPoint" />
          </mxGeometry>
        </mxCell>
        <mxCell id="_2mIFLcZgnzXSxb4yv_Y-118" value="" style="edgeLabel;resizable=0;html=1;align=left;verticalAlign=bottom;" connectable="0" vertex="1" parent="_2mIFLcZgnzXSxb4yv_Y-117">
          <mxGeometry x="-1" relative="1" as="geometry" />
        </mxCell>
        <mxCell id="_2mIFLcZgnzXSxb4yv_Y-119" value="" style="edgeLabel;resizable=0;html=1;align=right;verticalAlign=bottom;" connectable="0" vertex="1" parent="_2mIFLcZgnzXSxb4yv_Y-117">
          <mxGeometry x="1" relative="1" as="geometry" />
        </mxCell>
        <mxCell id="_2mIFLcZgnzXSxb4yv_Y-120" value="Assigned to" style="edgeLabel;html=1;align=center;verticalAlign=middle;resizable=0;points=[];" vertex="1" connectable="0" parent="_2mIFLcZgnzXSxb4yv_Y-117">
          <mxGeometry x="-0.2521" y="2" relative="1" as="geometry">
            <mxPoint as="offset" />
          </mxGeometry>
        </mxCell>
        <mxCell id="_2mIFLcZgnzXSxb4yv_Y-121" value="1" style="edgeLabel;html=1;align=center;verticalAlign=middle;resizable=0;points=[];" vertex="1" connectable="0" parent="_2mIFLcZgnzXSxb4yv_Y-117">
          <mxGeometry x="-0.6578" y="2" relative="1" as="geometry">
            <mxPoint as="offset" />
          </mxGeometry>
        </mxCell>
        <mxCell id="_2mIFLcZgnzXSxb4yv_Y-122" value="0..*" style="edgeLabel;html=1;align=center;verticalAlign=middle;resizable=0;points=[];" vertex="1" connectable="0" parent="_2mIFLcZgnzXSxb4yv_Y-117">
          <mxGeometry x="0.3724" relative="1" as="geometry">
            <mxPoint as="offset" />
          </mxGeometry>
        </mxCell>
        <mxCell id="_2mIFLcZgnzXSxb4yv_Y-123" value="Contains" style="endArrow=none;html=1;edgeStyle=orthogonalEdgeStyle;rounded=0;entryX=0.575;entryY=-0.012;entryDx=0;entryDy=0;entryPerimeter=0;exitX=0.869;exitY=1;exitDx=0;exitDy=0;exitPerimeter=0;" edge="1" parent="1" source="_2mIFLcZgnzXSxb4yv_Y-16" target="_2mIFLcZgnzXSxb4yv_Y-5">
          <mxGeometry relative="1" as="geometry">
            <mxPoint x="540" y="100" as="sourcePoint" />
            <mxPoint x="700" y="100" as="targetPoint" />
          </mxGeometry>
        </mxCell>
        <mxCell id="_2mIFLcZgnzXSxb4yv_Y-124" value="" style="edgeLabel;resizable=0;html=1;align=left;verticalAlign=bottom;" connectable="0" vertex="1" parent="_2mIFLcZgnzXSxb4yv_Y-123">
          <mxGeometry x="-1" relative="1" as="geometry" />
        </mxCell>
        <mxCell id="_2mIFLcZgnzXSxb4yv_Y-125" value="" style="edgeLabel;resizable=0;html=1;align=right;verticalAlign=bottom;" connectable="0" vertex="1" parent="_2mIFLcZgnzXSxb4yv_Y-123">
          <mxGeometry x="1" relative="1" as="geometry" />
        </mxCell>
        <mxCell id="_2mIFLcZgnzXSxb4yv_Y-126" value="*..*" style="edgeLabel;html=1;align=center;verticalAlign=middle;resizable=0;points=[];" vertex="1" connectable="0" parent="_2mIFLcZgnzXSxb4yv_Y-123">
          <mxGeometry x="-0.472" y="2" relative="1" as="geometry">
            <mxPoint as="offset" />
          </mxGeometry>
        </mxCell>
        <mxCell id="_2mIFLcZgnzXSxb4yv_Y-127" value="1" style="edgeLabel;html=1;align=center;verticalAlign=middle;resizable=0;points=[];" vertex="1" connectable="0" parent="_2mIFLcZgnzXSxb4yv_Y-123">
          <mxGeometry x="0.6001" relative="1" as="geometry">
            <mxPoint as="offset" />
          </mxGeometry>
        </mxCell>
        <mxCell id="_2mIFLcZgnzXSxb4yv_Y-128" value="" style="endArrow=none;html=1;edgeStyle=orthogonalEdgeStyle;rounded=0;exitX=1;exitY=1.154;exitDx=0;exitDy=0;exitPerimeter=0;" edge="1" parent="1" source="_2mIFLcZgnzXSxb4yv_Y-10" target="_2mIFLcZgnzXSxb4yv_Y-14">
          <mxGeometry relative="1" as="geometry">
            <mxPoint x="390" y="100" as="sourcePoint" />
            <mxPoint x="550" y="100" as="targetPoint" />
            <Array as="points">
              <mxPoint x="490" y="-74" />
              <mxPoint x="490" y="-41" />
            </Array>
          </mxGeometry>
        </mxCell>
        <mxCell id="_2mIFLcZgnzXSxb4yv_Y-131" value="Occupies" style="edgeLabel;html=1;align=center;verticalAlign=middle;resizable=0;points=[];" vertex="1" connectable="0" parent="_2mIFLcZgnzXSxb4yv_Y-128">
          <mxGeometry x="-0.0134" y="1" relative="1" as="geometry">
            <mxPoint as="offset" />
          </mxGeometry>
        </mxCell>
        <mxCell id="_2mIFLcZgnzXSxb4yv_Y-132" value="0..*" style="edgeLabel;html=1;align=center;verticalAlign=middle;resizable=0;points=[];" vertex="1" connectable="0" parent="_2mIFLcZgnzXSxb4yv_Y-128">
          <mxGeometry x="-0.4906" y="-1" relative="1" as="geometry">
            <mxPoint as="offset" />
          </mxGeometry>
        </mxCell>
        <mxCell id="_2mIFLcZgnzXSxb4yv_Y-133" value="0..1" style="edgeLabel;html=1;align=center;verticalAlign=middle;resizable=0;points=[];" vertex="1" connectable="0" parent="_2mIFLcZgnzXSxb4yv_Y-128">
          <mxGeometry x="0.6408" y="2" relative="1" as="geometry">
            <mxPoint as="offset" />
          </mxGeometry>
        </mxCell>
        <mxCell id="_2mIFLcZgnzXSxb4yv_Y-134" value="" style="endArrow=none;html=1;edgeStyle=orthogonalEdgeStyle;rounded=0;exitX=0.356;exitY=1.115;exitDx=0;exitDy=0;exitPerimeter=0;entryX=0.5;entryY=0;entryDx=0;entryDy=0;" edge="1" parent="1" source="_2mIFLcZgnzXSxb4yv_Y-20" target="_2mIFLcZgnzXSxb4yv_Y-25">
          <mxGeometry relative="1" as="geometry">
            <mxPoint x="300" y="300" as="sourcePoint" />
            <mxPoint x="350" y="230" as="targetPoint" />
          </mxGeometry>
        </mxCell>
        <mxCell id="_2mIFLcZgnzXSxb4yv_Y-135" value="" style="edgeLabel;resizable=0;html=1;align=left;verticalAlign=bottom;" connectable="0" vertex="1" parent="_2mIFLcZgnzXSxb4yv_Y-134">
          <mxGeometry x="-1" relative="1" as="geometry" />
        </mxCell>
        <mxCell id="_2mIFLcZgnzXSxb4yv_Y-136" value="" style="edgeLabel;resizable=0;html=1;align=right;verticalAlign=bottom;" connectable="0" vertex="1" parent="_2mIFLcZgnzXSxb4yv_Y-134">
          <mxGeometry x="1" relative="1" as="geometry" />
        </mxCell>
        <mxCell id="_2mIFLcZgnzXSxb4yv_Y-137" value="Has" style="edgeLabel;html=1;align=center;verticalAlign=middle;resizable=0;points=[];" vertex="1" connectable="0" parent="_2mIFLcZgnzXSxb4yv_Y-134">
          <mxGeometry x="0.4441" relative="1" as="geometry">
            <mxPoint as="offset" />
          </mxGeometry>
        </mxCell>
        <mxCell id="_2mIFLcZgnzXSxb4yv_Y-138" value="1" style="edgeLabel;html=1;align=center;verticalAlign=middle;resizable=0;points=[];" vertex="1" connectable="0" parent="_2mIFLcZgnzXSxb4yv_Y-134">
          <mxGeometry x="-0.0444" y="1" relative="1" as="geometry">
            <mxPoint as="offset" />
          </mxGeometry>
        </mxCell>
        <mxCell id="_2mIFLcZgnzXSxb4yv_Y-139" value="0..*" style="edgeLabel;html=1;align=center;verticalAlign=middle;resizable=0;points=[];" vertex="1" connectable="0" parent="_2mIFLcZgnzXSxb4yv_Y-134">
          <mxGeometry x="0.7136" y="1" relative="1" as="geometry">
            <mxPoint as="offset" />
          </mxGeometry>
        </mxCell>
      </root>
    </mxGraphModel>
  </diagram>
</mxfile>
